<svg width="1440" height="919" viewBox="0 0 1440 919" fill="none" xmlns="http://www.w3.org/2000/svg">
<g opacity="0.08">
<path d="M1774.42 512.5C1774.42 1099.85 1302.44 1576 720.212 1576C137.987 1576 -334 1099.85 -334 512.5C-334 -74.8548 137.987 -551 720.212 -551C1302.44 -551 1774.42 -74.8548 1774.42 512.5ZM-288.81 512.5C-288.81 1074.68 162.945 1530.41 720.212 1530.41C1277.48 1530.41 1729.23 1074.68 1729.23 512.5C1729.23 -49.6769 1277.48 -505.411 720.212 -505.411C162.945 -505.411 -288.81 -49.6769 -288.81 512.5Z" fill="#FCA59A"/>
<path d="M1672.25 512.501C1672.25 1043.43 1246.01 1473.83 720.212 1473.83C194.414 1473.83 -231.829 1043.43 -231.829 512.501C-231.829 -18.4272 194.414 -448.829 720.212 -448.829C1246.01 -448.829 1672.25 -18.4272 1672.25 512.501ZM-191.018 512.501C-191.018 1020.67 216.954 1432.62 720.212 1432.62C1223.47 1432.62 1631.44 1020.67 1631.44 512.501C1631.44 4.33188 1223.47 -407.62 720.212 -407.62C216.954 -407.62 -191.018 4.33188 -191.018 512.501Z" fill="#FCA59A"/>
<path d="M1574.73 526.432C1574.73 1003.5 1192.15 1390.24 720.211 1390.24C248.276 1390.24 -134.304 1003.5 -134.304 526.432C-134.304 49.3662 248.276 -337.372 720.211 -337.372C1192.15 -337.372 1574.73 49.3662 1574.73 526.432ZM-97.6737 526.432C-97.6737 983.047 268.506 1353.21 720.211 1353.21C1171.92 1353.21 1538.1 983.047 1538.1 526.432C1538.1 69.8164 1171.92 -300.343 720.211 -300.343C268.506 -300.343 -97.6737 69.8164 -97.6737 526.432Z" fill="#FCA59A"/>
<path d="M1481.84 510.177C1481.84 932.098 1139.81 1274.13 717.889 1274.13C295.968 1274.13 -46.0662 932.098 -46.0662 510.177C-46.0662 88.2565 295.968 -253.778 717.889 -253.778C1139.81 -253.778 1481.84 88.2565 1481.84 510.177ZM-13.318 510.177C-13.318 914.012 314.055 1241.38 717.889 1241.38C1121.72 1241.38 1449.1 914.012 1449.1 510.177C1449.1 106.343 1121.72 -221.03 717.889 -221.03C314.055 -221.03 -13.318 106.343 -13.318 510.177Z" fill="#FCA59A"/>
<path d="M1370.39 510.178C1370.39 870.542 1078.25 1162.68 717.89 1162.68C357.526 1162.68 65.3934 870.542 65.3934 510.178C65.3934 149.814 357.526 -142.318 717.89 -142.318C1078.25 -142.318 1370.39 149.814 1370.39 510.178ZM93.3638 510.178C93.3638 855.095 372.974 1134.7 717.89 1134.7C1062.81 1134.7 1342.42 855.095 1342.42 510.178C1342.42 165.262 1062.81 -114.348 717.89 -114.348C372.974 -114.348 93.3638 165.262 93.3638 510.178Z" fill="#FCA59A"/>
<path d="M1263.57 510.179C1263.57 811.551 1019.26 1055.86 717.89 1055.86C416.518 1055.86 172.208 811.551 172.208 510.179C172.208 208.807 416.518 -35.5037 717.89 -35.5037C1019.26 -35.5037 1263.57 208.807 1263.57 510.179ZM195.599 510.179C195.599 798.632 429.437 1032.47 717.89 1032.47C1006.34 1032.47 1240.18 798.632 1240.18 510.179C1240.18 221.725 1006.34 -12.1121 717.89 -12.1121C429.437 -12.1121 195.599 221.725 195.599 510.179Z" fill="#FCA59A"/>
<path d="M1189.27 510.179C1189.27 770.513 978.224 981.555 717.89 981.555C457.556 981.555 246.513 770.513 246.513 510.179C246.513 249.845 457.556 38.802 717.89 38.802C978.224 38.802 1189.27 249.845 1189.27 510.179ZM266.72 510.179C266.72 759.353 468.715 961.349 717.89 961.349C967.064 961.349 1169.06 759.353 1169.06 510.179C1169.06 261.004 967.064 59.0083 717.89 59.0083C468.715 59.0083 266.72 261.004 266.72 510.179Z" fill="#FCA59A"/>
<path d="M1073.16 510.179C1073.16 719.215 903.706 888.673 694.669 888.673C485.632 888.673 316.174 719.215 316.174 510.179C316.174 301.142 485.632 131.684 694.669 131.684C903.706 131.684 1073.16 301.142 1073.16 510.179ZM332.399 510.179C332.399 710.255 494.593 872.448 694.669 872.448C894.745 872.448 1056.94 710.255 1056.94 510.179C1056.94 310.102 894.745 147.909 694.669 147.909C494.593 147.909 332.399 310.102 332.399 510.179Z" fill="#FCA59A"/>
<path d="M984.925 524.111C984.925 684.416 854.973 814.368 694.669 814.368C534.365 814.368 404.412 684.416 404.412 524.111C404.412 363.807 534.365 233.855 694.669 233.855C854.973 233.855 984.925 363.807 984.925 524.111ZM416.855 524.111C416.855 677.544 541.236 801.926 694.669 801.926C848.101 801.926 972.483 677.544 972.483 524.111C972.483 370.679 848.101 246.297 694.669 246.297C541.236 246.297 416.855 370.679 416.855 524.111Z" fill="#FCA59A"/>
<path d="M943.129 526.433C943.129 662.371 832.929 772.57 696.991 772.57C561.053 772.57 450.854 662.371 450.854 526.433C450.854 390.495 561.053 280.295 696.991 280.295C832.929 280.295 943.129 390.495 943.129 526.433ZM461.405 526.433C461.405 656.544 566.88 762.019 696.991 762.019C827.102 762.019 932.578 656.544 932.578 526.433C932.578 396.322 827.102 290.846 696.991 290.846C566.88 290.846 461.405 396.322 461.405 526.433Z" fill="#FCA59A"/>
<path d="M868.823 524.112C868.823 620.294 790.852 698.266 694.669 698.266C598.486 698.266 520.515 620.294 520.515 524.112C520.515 427.929 598.486 349.958 694.669 349.958C790.852 349.958 868.823 427.929 868.823 524.112ZM527.98 524.112C527.98 616.171 602.609 690.8 694.669 690.8C786.729 690.8 861.358 616.171 861.358 524.112C861.358 432.052 786.729 357.423 694.669 357.423C602.609 357.423 527.98 432.052 527.98 524.112Z" fill="#FCA59A"/>
<path d="M813.094 512.5C813.094 571.492 761.113 619.315 696.991 619.315C632.87 619.315 580.889 571.492 580.889 512.5C580.889 453.508 632.87 405.686 696.991 405.686C761.113 405.686 813.094 453.508 813.094 512.5ZM585.866 512.5C585.866 568.964 635.618 614.736 696.991 614.736C758.364 614.736 808.117 568.964 808.117 512.5C808.117 456.037 758.364 410.265 696.991 410.265C635.618 410.265 585.866 456.037 585.866 512.5Z" fill="#FCA59A"/>
<path d="M762.009 512.5C762.009 545.843 732.899 572.873 696.991 572.873C661.083 572.873 631.974 545.843 631.974 512.5C631.974 479.157 661.083 452.126 696.991 452.126C732.899 452.126 762.009 479.157 762.009 512.5ZM634.761 512.5C634.761 544.414 662.622 570.285 696.991 570.285C731.36 570.285 759.221 544.414 759.221 512.5C759.221 480.586 731.36 454.714 696.991 454.714C662.622 454.714 634.761 480.586 634.761 512.5Z" fill="#FCA59A"/>
</g>
</svg>
