<svg width="24" height="25" viewBox="0 0 24 25" fill="none" xmlns="http://www.w3.org/2000/svg">
<g id="vuesax/bold/facebook">
<g id="facebook">
<path id="Vector" d="M22 16.857C22 20.497 19.83 22.667 16.19 22.667H15C14.45 22.667 14 22.217 14 21.667V15.897C14 15.627 14.22 15.397 14.49 15.397L16.25 15.367C16.39 15.357 16.51 15.257 16.54 15.117L16.89 13.207C16.92 13.027 16.78 12.857 16.59 12.857L14.46 12.887C14.18 12.887 13.96 12.667 13.95 12.397L13.91 9.94699C13.91 9.78699 14.04 9.647 14.21 9.647L16.61 9.60699C16.78 9.60699 16.91 9.47701 16.91 9.30701L16.87 6.90698C16.87 6.73698 16.74 6.60699 16.57 6.60699L13.87 6.647C12.21 6.677 10.89 8.03699 10.92 9.69699L10.97 12.447C10.98 12.727 10.76 12.947 10.48 12.957L9.28 12.977C9.11 12.977 8.98001 13.107 8.98001 13.277L9.01001 15.177C9.01001 15.347 9.14 15.477 9.31 15.477L10.51 15.457C10.79 15.457 11.01 15.677 11.02 15.947L11.11 21.647C11.12 22.207 10.67 22.667 10.11 22.667H7.81C4.17 22.667 2 20.497 2 16.847V8.47699C2 4.83699 4.17 2.66699 7.81 2.66699H16.19C19.83 2.66699 22 4.83699 22 8.47699V16.857Z" fill="#333333"/>
</g>
</g>
</svg>
