<svg width="24" height="25" viewBox="0 0 24 25" fill="none" xmlns="http://www.w3.org/2000/svg">
<g id="vuesax/bold/instagram">
<g id="instagram">
<path id="Vector" d="M16.19 2.66699H7.81C4.17 2.66699 2 4.83699 2 8.47699V16.847C2 20.497 4.17 22.667 7.81 22.667H16.18C19.82 22.667 21.99 20.497 21.99 16.857V8.47699C22 4.83699 19.83 2.66699 16.19 2.66699ZM12 16.547C9.86 16.547 8.12 14.807 8.12 12.667C8.12 10.527 9.86 8.78699 12 8.78699C14.14 8.78699 15.88 10.527 15.88 12.667C15.88 14.807 14.14 16.547 12 16.547ZM17.92 7.54699C17.87 7.66699 17.8 7.77699 17.71 7.87699C17.61 7.96699 17.5 8.03699 17.38 8.08699C17.26 8.13699 17.13 8.16699 17 8.16699C16.73 8.16699 16.48 8.06699 16.29 7.87699C16.2 7.77699 16.13 7.66699 16.08 7.54699C16.03 7.42699 16 7.29699 16 7.16699C16 7.03699 16.03 6.90699 16.08 6.78699C16.13 6.65699 16.2 6.55699 16.29 6.45699C16.52 6.22699 16.87 6.11699 17.19 6.18699C17.26 6.19699 17.32 6.21699 17.38 6.24699C17.44 6.26699 17.5 6.29699 17.56 6.33699C17.61 6.36699 17.66 6.41699 17.71 6.45699C17.8 6.55699 17.87 6.65699 17.92 6.78699C17.97 6.90699 18 7.03699 18 7.16699C18 7.29699 17.97 7.42699 17.92 7.54699Z" fill="#333333"/>
</g>
</g>
</svg>
