<svg width="40" height="41" viewBox="0 0 40 41" fill="none" xmlns="http://www.w3.org/2000/svg">
<g id="Group 121">
<path id="Vector" d="M2.33368 40.0665C1.78939 40.0665 1.24511 39.8576 0.83004 39.4425C0.0025205 38.6124 0.00382689 37.268 0.835263 36.4392L6.83935 30.456C7.66948 29.6285 9.01388 29.6298 9.8427 30.4612C10.6702 31.2913 10.6689 32.6357 9.83748 33.4646L3.83339 39.4478C3.41963 39.8602 2.87665 40.0677 2.33498 40.0677L2.33368 40.0665Z" fill="#F95031"/>
<path id="Vector_2" d="M2.12264 30.8424C1.57966 30.8424 1.03538 30.6349 0.621619 30.2211C-0.207206 29.3923 -0.207206 28.0479 0.621619 27.2178L4.3063 23.5331C5.13512 22.7043 6.47952 22.7043 7.30965 23.5331C8.13847 24.3619 8.13847 25.7063 7.30965 26.5365L3.62497 30.2211C3.2099 30.6362 2.66693 30.8437 2.12395 30.8437L2.12264 30.8424Z" fill="#F95031"/>
<path id="Vector_3" d="M11.5812 40.3053C11.0383 40.3053 10.494 40.0978 10.0802 39.6827C9.25138 38.8539 9.25138 37.5095 10.0802 36.6794L13.7649 32.996C14.5937 32.1672 15.9381 32.1672 16.7682 32.996C17.5971 33.8248 17.5971 35.1692 16.7682 35.9994L13.0836 39.6827C12.6685 40.0978 12.1255 40.304 11.5825 40.304L11.5812 40.3053Z" fill="#F95031"/>
<path id="Vector_4" d="M24.9193 12.1458C23.1599 12.1458 21.7345 13.5724 21.7345 15.3306C21.7345 17.0901 23.1612 18.5154 24.9193 18.5154C26.6775 18.5154 28.1041 17.0887 28.1041 15.3306C28.1041 13.5724 26.6775 12.1458 24.9193 12.1458Z" fill="#F95031"/>
<path id="Vector_5" d="M17.4121 26.0193C19.171 26.0193 20.5969 24.5935 20.5969 22.8346C20.5969 21.0757 19.171 19.6498 17.4121 19.6498C15.6532 19.6498 14.2274 21.0757 14.2274 22.8346C14.2274 24.5935 15.6532 26.0193 17.4121 26.0193Z" fill="#F95031"/>
<path id="Vector_6" d="M5.56624 18.7715C4.87446 18.7715 4.17747 18.547 3.59272 18.0837C2.21309 16.9925 1.97945 14.9889 3.07063 13.6093C3.19332 13.4553 6.12619 9.78888 11.7257 6.31956C16.8461 3.14783 25.3275 -0.51335 36.6635 0.0596486C38.4204 0.148405 39.7726 1.6442 39.6838 3.40105C39.5951 5.1579 38.0966 6.50882 36.3424 6.42137C17.8446 5.48682 8.16366 17.4402 8.06838 17.5603C7.43926 18.3551 6.50862 18.7689 5.56885 18.7689L5.56624 18.7715Z" fill="#F95031"/>
<path id="Vector_7" d="M24.4171 37.6154C23.4773 37.6154 22.5454 37.2016 21.9176 36.4067C20.829 35.0297 21.0587 33.0327 22.4305 31.9389C22.4971 31.8854 25.537 29.4002 28.4033 24.6936C32.225 18.4193 33.9662 11.3423 33.5786 3.65705C33.4898 1.9002 34.842 0.404398 36.5989 0.315642C38.3531 0.224275 39.8515 1.57911 39.9403 3.33596C40.5133 14.6706 36.8521 23.1534 33.6804 28.2738C30.2111 33.8733 26.5446 36.8061 26.3906 36.9288C25.8059 37.3909 25.1089 37.6167 24.4171 37.6167V37.6154Z" fill="#F95031"/>
</g>
</svg>
