<svg width="24" height="25" viewBox="0 0 24 25" fill="none" xmlns="http://www.w3.org/2000/svg">
<g id="Linkedln">
<path id="Vector" d="M23.994 24.6667V24.6657H24V15.8637C24 11.5577 23.073 8.24072 18.039 8.24072C15.619 8.24072 13.995 9.56872 13.332 10.8277H13.262V8.64272H8.48901V24.6657H13.459V16.7317C13.459 14.6427 13.855 12.6227 16.442 12.6227C18.991 12.6227 19.029 15.0067 19.029 16.8657V24.6667H23.994Z" fill="#333333"/>
<path id="Vector_2" d="M0.395752 8.64404H5.37176V24.667H0.395752V8.64404Z" fill="#333333"/>
<path id="Vector_3" d="M2.882 0.666992C1.291 0.666992 0 1.95799 0 3.54899C0 5.13999 1.291 6.45799 2.882 6.45799C4.473 6.45799 5.764 5.13999 5.764 3.54899C5.763 1.95799 4.472 0.666992 2.882 0.666992V0.666992Z" fill="#333333"/>
</g>
</svg>
