<svg width="24" height="25" viewBox="0 0 24 25" fill="none" xmlns="http://www.w3.org/2000/svg">
<path d="M21.98 12.0769C21.64 6.27694 16.37 1.80695 10.3 2.80695C6.11998 3.49695 2.76999 6.88693 2.11999 11.0669C1.73999 13.4869 2.24001 15.7769 3.33001 17.6669L2.43999 20.9769C2.23999 21.7269 2.92998 22.4069 3.66998 22.1969L6.92999 21.2969C8.40999 22.1669 10.14 22.6669 11.99 22.6669C17.63 22.6669 22.31 17.6969 21.98 12.0769ZM16.88 16.3869C16.79 16.5669 16.68 16.737 16.54 16.897C16.29 17.167 16.02 17.3669 15.72 17.4869C15.42 17.6169 15.09 17.6769 14.74 17.6769C14.23 17.6769 13.68 17.557 13.11 17.307C12.53 17.057 11.96 16.7269 11.39 16.3169C10.81 15.8969 10.27 15.4269 9.74999 14.9169C9.22999 14.3969 8.76997 13.8469 8.34997 13.2769C7.93997 12.7069 7.60999 12.1369 7.36999 11.5669C7.12999 10.9969 7.01 10.4469 7.01 9.92695C7.01 9.58695 7.06999 9.25695 7.18999 8.95695C7.30999 8.64695 7.50001 8.36695 7.77001 8.11695C8.09001 7.79695 8.43999 7.64695 8.80999 7.64695C8.94999 7.64695 9.08996 7.67695 9.21996 7.73695C9.34996 7.79695 9.46999 7.88695 9.55999 8.01695L10.72 9.65693C10.81 9.78693 10.88 9.89694 10.92 10.0069C10.97 10.1169 10.99 10.2169 10.99 10.3169C10.99 10.4369 10.95 10.5569 10.88 10.6769C10.81 10.7969 10.72 10.9169 10.6 11.0369L10.22 11.4369C10.16 11.4969 10.14 11.5569 10.14 11.6369C10.14 11.6769 10.15 11.7169 10.16 11.7569C10.18 11.7969 10.19 11.8269 10.2 11.8569C10.29 12.0269 10.45 12.2369 10.67 12.4969C10.9 12.7569 11.14 13.0269 11.4 13.2869C11.67 13.5569 11.93 13.7969 12.2 14.0269C12.46 14.2469 12.68 14.3969 12.85 14.4869C12.88 14.4969 12.91 14.5169 12.94 14.5269C12.98 14.5469 13.02 14.5469 13.07 14.5469C13.16 14.5469 13.22 14.5169 13.28 14.4569L13.66 14.0769C13.79 13.9469 13.91 13.8569 14.02 13.7969C14.14 13.7269 14.25 13.6869 14.38 13.6869C14.48 13.6869 14.58 13.7069 14.69 13.7569C14.8 13.8069 14.92 13.8669 15.04 13.9569L16.7 15.1369C16.83 15.2269 16.92 15.3369 16.98 15.4569C17.03 15.5869 17.06 15.7069 17.06 15.8469C17 16.0169 16.96 16.2069 16.88 16.3869Z" fill="#333333"/>
</svg>
